<?xml version="1.0" standalone="no"?>
<!DOCTYPE svg PUBLIC "-//W3C//DTD SVG 20010904//EN"
 "http://www.w3.org/TR/2001/REC-SVG-20010904/DTD/svg10.dtd">
<svg version="1.0" xmlns="http://www.w3.org/2000/svg"
 width="382.000000pt" height="287.000000pt" viewBox="0 0 382.000000 287.000000"
 preserveAspectRatio="xMidYMid meet">

<g transform="translate(0.000000,287.000000) scale(0.100000,-0.100000)"
fill="#000000" stroke="none">
<path d="M630 1582 l0 -1282 -315 0 -315 0 0 -150 0 -150 475 0 475 0 0 1260
0 1260 23 -4 c12 -3 69 -15 127 -26 303 -62 617 -212 870 -417 108 -88 275
-262 362 -380 324 -436 502 -954 534 -1560 l7 -133 473 0 474 0 0 150 0 150
-324 0 -323 0 -7 80 c-27 330 -147 744 -310 1070 -426 852 -1179 1357 -2100
1406 l-126 7 0 -1281z"/>
</g>
</svg>
