<?xml version="1.0" standalone="no"?>
<!DOCTYPE svg PUBLIC "-//W3C//DTD SVG 20010904//EN"
 "http://www.w3.org/TR/2001/REC-SVG-20010904/DTD/svg10.dtd">
<svg version="1.0" xmlns="http://www.w3.org/2000/svg"
 width="115.000000pt" height="556.000000pt" viewBox="0 0 115.000000 556.000000"
 preserveAspectRatio="xMidYMid meet">

<g transform="translate(0.000000,556.000000) scale(0.100000,-0.100000)"
fill="#000000" stroke="none">
<path d="M0 2780 l0 -2780 575 0 575 0 0 2780 0 2780 -575 0 -575 0 0 -2780z
m240 -10 l0 -2740 -100 0 -100 0 0 2740 0 2740 100 0 100 0 0 -2740z m300 0
l0 -2740 -120 0 -120 0 0 2740 0 2740 120 0 120 0 0 -2740z m270 0 l0 -2740
-105 0 -105 0 0 2740 0 2740 105 0 105 0 0 -2740z m300 0 l0 -2740 -120 0
-120 0 0 2740 0 2740 120 0 120 0 0 -2740z"/>
</g>
</svg>
