<?xml version="1.0" standalone="no"?>
<!DOCTYPE svg PUBLIC "-//W3C//DTD SVG 20010904//EN"
 "http://www.w3.org/TR/2001/REC-SVG-20010904/DTD/svg10.dtd">
<svg version="1.0" xmlns="http://www.w3.org/2000/svg"
 width="191.000000pt" height="621.000000pt" viewBox="0 0 191.000000 621.000000"
 preserveAspectRatio="xMidYMid meet">

<g transform="translate(0.000000,621.000000) scale(0.100000,-0.100000)"
fill="#000000" stroke="none">
<path d="M25 6188 c-3 -7 -4 -1397 -3 -3088 l3 -3075 420 -3 c259 -1 423 -6
429 -12 13 -13 159 -13 172 0 6 6 170 11 429 12 l420 3 0 3085 0 3085 -933 3
c-741 2 -934 0 -937 -10z m922 -50 c-4 -13 -30 -112 -59 -220 l-53 -198 -387
0 -388 0 0 220 0 220 446 0 446 0 -5 -22z m913 -198 l0 -220 -390 0 c-214 0
-390 2 -390 4 0 3 -25 97 -55 210 -30 112 -55 209 -55 215 0 8 135 11 445 11
l445 0 0 -220z m-1034 -257 c-20 -68 -66 -246 -66 -258 0 -12 17 -15 85 -15
l85 0 0 -80 0 -80 -435 0 -435 0 0 225 0 225 386 0 c362 0 385 -1 380 -17z
m1034 -208 l0 -225 -435 0 -435 0 0 80 0 80 85 0 c56 0 85 4 85 11 0 6 -16 69
-35 140 -19 71 -35 132 -35 134 0 3 173 5 385 5 l385 0 0 -225z m-930 -475 l0
-230 -435 0 -435 0 0 230 0 230 435 0 435 0 0 -230z m930 0 l0 -230 -435 0
-435 0 0 230 0 230 435 0 435 0 0 -230z m-930 -475 l0 -225 -435 0 -435 0 0
225 0 225 435 0 435 0 0 -225z m930 0 l0 -225 -435 0 -435 0 0 225 0 225 435
0 435 0 0 -225z m-930 -470 l0 -225 -435 0 -435 0 0 225 0 225 435 0 435 0 0
-225z m930 0 l0 -225 -435 0 -435 0 0 225 0 225 435 0 435 0 0 -225z m-930
-470 l0 -225 -435 0 -435 0 0 225 0 225 435 0 435 0 0 -225z m930 0 l0 -225
-435 0 -435 0 0 225 0 225 435 0 435 0 0 -225z m-930 -475 l0 -230 -435 0
-435 0 0 230 0 230 435 0 435 0 0 -230z m930 0 l0 -230 -435 0 -435 0 0 230 0
230 435 0 435 0 0 -230z m-930 -475 l0 -225 -435 0 -435 0 0 225 0 225 435 0
435 0 0 -225z m930 0 l0 -225 -435 0 -435 0 0 225 0 225 435 0 435 0 0 -225z
m-930 -470 l0 -225 -435 0 -435 0 0 225 0 225 435 0 435 0 0 -225z m930 0 l0
-225 -435 0 -435 0 0 225 0 225 435 0 435 0 0 -225z m-930 -470 l0 -225 -435
0 -435 0 0 225 0 225 435 0 435 0 0 -225z m930 0 l0 -225 -435 0 -435 0 0 225
0 225 435 0 435 0 0 -225z m-930 -475 l0 -230 -435 0 -435 0 0 230 0 230 435
0 435 0 0 -230z m930 0 l0 -230 -435 0 -435 0 0 230 0 230 435 0 435 0 0 -230z
m-930 -475 l0 -225 -435 0 -435 0 0 225 0 225 435 0 435 0 0 -225z m930 0 l0
-225 -435 0 -435 0 0 225 0 225 435 0 435 0 0 -225z m-930 -419 l0 -174 -26
-17 c-14 -9 -30 -30 -36 -46 l-10 -29 -399 0 -399 0 0 220 0 220 435 0 435 0
0 -174z m930 -46 l0 -220 -400 0 -400 0 -14 34 c-8 19 -24 39 -35 46 -20 10
-21 19 -21 185 l0 175 435 0 435 0 0 -220z"/>
</g>
</svg>
